<?xml version="1.0" encoding="UTF-8" standalone="no"?>
<!-- Created with Inkscape (http://www.inkscape.org/) -->

<svg
   xmlns:dc="http://purl.org/dc/elements/1.1/"
   xmlns:cc="http://creativecommons.org/ns#"
   xmlns:rdf="http://www.w3.org/1999/02/22-rdf-syntax-ns#"
   xmlns:svg="http://www.w3.org/2000/svg"
   xmlns="http://www.w3.org/2000/svg"
   xmlns:sodipodi="http://sodipodi.sourceforge.net/DTD/sodipodi-0.dtd"
   xmlns:inkscape="http://www.inkscape.org/namespaces/inkscape"
   width="1280"
   height="720"
   viewBox="0 0 1280 719.99999"
   id="svg2"
   version="1.1"
   inkscape:version="0.91 r13725"
   sodipodi:docname="webpage_mockup_v2.svg">
  <defs
     id="defs4" />
  <sodipodi:namedview
     id="base"
     pagecolor="#ffffff"
     bordercolor="#666666"
     borderopacity="1.0"
     inkscape:pageopacity="0.0"
     inkscape:pageshadow="2"
     inkscape:zoom="0.74583333"
     inkscape:cx="615.86592"
     inkscape:cy="415.49035"
     inkscape:document-units="px"
     inkscape:current-layer="layer1"
     showgrid="false"
     units="px"
     inkscape:showpageshadow="false"
     inkscape:window-width="1366"
     inkscape:window-height="706"
     inkscape:window-x="-8"
     inkscape:window-y="-8"
     inkscape:window-maximized="1"
     showguides="false"
     inkscape:guide-bbox="true"
     inkscape:snap-page="true">
    <sodipodi:guide
       position="651.62011,194.41341"
       orientation="1,0"
       id="guide3336" />
  </sodipodi:namedview>
  <metadata
     id="metadata7">
    <rdf:RDF>
      <cc:Work
         rdf:about="">
        <dc:format>image/svg+xml</dc:format>
        <dc:type
           rdf:resource="http://purl.org/dc/dcmitype/StillImage" />
        <dc:title></dc:title>
      </cc:Work>
    </rdf:RDF>
  </metadata>
  <g
     inkscape:label="Layer 1"
     inkscape:groupmode="layer"
     id="layer1"
     transform="translate(0,-332.3623)">
    <rect
       style="fill:none;fill-rule:evenodd;stroke:#000000;stroke-width:1px;stroke-linecap:butt;stroke-linejoin:miter;stroke-opacity:1"
       id="rect3338"
       width="920"
       height="720"
       x="180"
       y="332.3623"
       ry="0" />
    <rect
       style="fill:none"
       id="rect4147"
       width="909.05029"
       height="81.787712"
       x="186.36871"
       y="332.3623" />
    <rect
       style="fill:none"
       id="rect4151"
       width="909.05029"
       height="68.37989"
       x="186.36871"
       y="332.3623" />
    <rect
       style="fill:none"
       id="rect4153"
       width="909.05029"
       height="67.039108"
       x="185.02794"
       y="332.3623" />
    <rect
       style="fill:none"
       id="rect4155"
       width="906.36871"
       height="77.765366"
       x="187.7095"
       y="332.3623" />
    <rect
       style="fill:none"
       id="rect4157"
       width="63.016758"
       height="77.765366"
       x="117.98883"
       y="371.245" />
    <rect
       style="fill:none;fill-opacity:1;stroke:#000000;stroke-width:1.26959503;stroke-opacity:1"
       id="rect4159"
       width="898.73041"
       height="132.36169"
       x="190.63481"
       y="345.28482" />
    <rect
       style="fill:none;fill-opacity:1;stroke:#000000;stroke-width:0.82830632;stroke-miterlimit:4;stroke-dasharray:none;stroke-opacity:1"
       id="rect4163"
       width="900.17169"
       height="371.56833"
       x="190.30522"
       y="488.39935" />
    <rect
       style="fill:none;fill-opacity:1;stroke:#000000;stroke-width:1.42052388;stroke-opacity:1"
       id="rect4159-1"
       width="898.57947"
       height="165.73032"
       x="190.71027"
       y="874.97198" />
    <rect
       style="fill:none;fill-opacity:1;stroke:#000000;stroke-width:0.7626248;stroke-miterlimit:4;stroke-dasharray:none;stroke-opacity:1"
       id="rect4180"
       width="296.5502"
       height="232.19269"
       x="782.89813"
       y="500.50058" />
    <rect
       style="fill:none;fill-opacity:1;stroke:#000000;stroke-width:1.06374192;stroke-miterlimit:4;stroke-dasharray:none;stroke-opacity:1"
       id="rect4180-0"
       width="571.10944"
       height="234.5731"
       x="198.73579"
       y="500.02548" />
    <flowRoot
       xml:space="preserve"
       id="flowRoot3353"
       style="font-style:normal;font-weight:normal;font-size:40px;line-height:125%;font-family:sans-serif;letter-spacing:0px;word-spacing:0px;fill:#000000;fill-opacity:1;stroke:none;stroke-width:1px;stroke-linecap:butt;stroke-linejoin:miter;stroke-opacity:1"
       transform="translate(0,332.3623)"><flowRegion
         id="flowRegion3355"><rect
           id="rect3357"
           width="502.7933"
           height="40.223465"
           x="462.56982"
           y="34.860332" /></flowRegion><flowPara
         id="flowPara3359">HHEADER</flowPara></flowRoot>    <text
       xml:space="preserve"
       style="font-style:normal;font-weight:normal;font-size:40px;line-height:125%;font-family:sans-serif;letter-spacing:0px;word-spacing:0px;fill:#000080;fill-opacity:1;stroke:none;stroke-width:1px;stroke-linecap:butt;stroke-linejoin:miter;stroke-opacity:1"
       x="395.53073"
       y="635.37903"
       id="text3361"
       sodipodi:linespacing="125%"><tspan
         sodipodi:role="line"
         id="tspan3363"
         x="395.53073"
         y="635.37903">ARTICLE</tspan></text>
    <rect
       style="fill:none;fill-opacity:1;stroke:#000000;stroke-width:1;stroke-miterlimit:4;stroke-dasharray:none;stroke-opacity:1"
       id="rect3365"
       width="879.5531"
       height="53.631287"
       x="202.4581"
       y="414.14999" />
    <text
       xml:space="preserve"
       style="font-style:normal;font-weight:normal;font-size:40px;line-height:125%;font-family:sans-serif;letter-spacing:0px;word-spacing:0px;fill:#000080;fill-opacity:1;stroke:none;stroke-width:1px;stroke-linecap:butt;stroke-linejoin:miter;stroke-opacity:1;"
       x="607.37427"
       y="453.03268"
       id="text4167"
       sodipodi:linespacing="125%"><tspan
         sodipodi:role="line"
         id="tspan4169"
         x="607.37427"
         y="453.03268">NAV</tspan></text>
    <text
       xml:space="preserve"
       style="font-style:normal;font-weight:normal;font-size:40px;line-height:125%;font-family:sans-serif;letter-spacing:0px;word-spacing:0px;fill:#000080;fill-opacity:1;stroke:none;stroke-width:1px;stroke-linecap:butt;stroke-linejoin:miter;stroke-opacity:1"
       x="570.25183"
       y="385.78598"
       id="text3361-7"
       sodipodi:linespacing="125%"><tspan
         sodipodi:role="line"
         id="tspan3363-9"
         x="570.25183"
         y="385.78598">HEADER</tspan></text>
    <text
       xml:space="preserve"
       style="font-style:normal;font-weight:normal;font-size:40px;line-height:125%;font-family:sans-serif;letter-spacing:0px;word-spacing:0px;fill:#000080;fill-opacity:1;stroke:none;stroke-width:1px;stroke-linecap:butt;stroke-linejoin:miter;stroke-opacity:1"
       x="867.89838"
       y="568.13239"
       id="text3361-1"
       sodipodi:linespacing="125%"><tspan
         sodipodi:role="line"
         id="tspan3363-91"
         x="867.89838"
         y="568.13239">FORM</tspan></text>
    <g
       id="g4272"
       transform="matrix(0.84914831,0,0,0.66036689,137.83674,193.83046)">
      <rect
         y="600.51874"
         x="808.49164"
         height="29.497208"
         width="254.74861"
         id="rect4215"
         style="fill:none;fill-opacity:1;stroke:#000000;stroke-width:1;stroke-miterlimit:4;stroke-dasharray:none;stroke-opacity:1" />
      <rect
         y="644.76453"
         x="809.8324"
         height="29.497208"
         width="254.74861"
         id="rect4215-7"
         style="fill:none;fill-opacity:1;stroke:#000000;stroke-width:1;stroke-miterlimit:4;stroke-dasharray:none;stroke-opacity:1" />
      <rect
         y="689.01038"
         x="809.12854"
         height="29.497208"
         width="254.74861"
         id="rect4215-7-4"
         style="fill:none;fill-opacity:1;stroke:#000000;stroke-width:1;stroke-miterlimit:4;stroke-dasharray:none;stroke-opacity:1" />
      <g
         id="g4269">
        <rect
           style="fill:#000080;fill-opacity:1;stroke:#000000;stroke-width:1;stroke-miterlimit:4;stroke-dasharray:none;stroke-opacity:1"
           id="rect4249"
           width="146.14525"
           height="29.497208"
           x="868.82684"
           y="743.98242" />
      </g>
    </g>
    <text
       xml:space="preserve"
       style="font-style:normal;font-weight:normal;font-size:40px;line-height:125%;font-family:sans-serif;letter-spacing:0px;word-spacing:0px;fill:#000080;fill-opacity:1;stroke:none;stroke-width:1px;stroke-linecap:butt;stroke-linejoin:miter;stroke-opacity:1"
       x="587.80896"
       y="975.73016"
       id="text3361-3"
       sodipodi:linespacing="125%"><tspan
         sodipodi:role="line"
         id="tspan3363-96"
         x="587.80896"
         y="975.73016">FOOTER</tspan></text>
    <rect
       style="fill:none;fill-opacity:1;stroke:#000000;stroke-width:1.09069121;stroke-opacity:1"
       id="rect4159-1-7"
       width="874.77521"
       height="100.36182"
       x="202.16547"
       y="745.46631" />
    <text
       xml:space="preserve"
       style="font-style:normal;font-weight:normal;font-size:40px;line-height:125%;font-family:sans-serif;letter-spacing:0px;word-spacing:0px;fill:#000080;fill-opacity:1;stroke:none;stroke-width:1px;stroke-linecap:butt;stroke-linejoin:miter;stroke-opacity:1"
       x="571.71954"
       y="805.45081"
       id="text3361-72"
       sodipodi:linespacing="125%"><tspan
         sodipodi:role="line"
         id="tspan3363-1"
         x="571.71954"
         y="805.45081">ARTICLE</tspan></text>
    <path
       style="fill:#000080;fill-rule:evenodd;stroke:#000000;stroke-width:3;stroke-linecap:butt;stroke-linejoin:miter;stroke-opacity:1;opacity:0;stroke-miterlimit:4;stroke-dasharray:none"
       d="m 155.53073,491.91537 c -3.57542,5.36313 -6.30862,11.39564 -10.72626,16.08939 -2.88971,3.07031 -7.21808,4.36512 -10.72626,6.70391 -0.5259,0.35059 -0.83514,0.96155 -1.34078,1.34078 -0.83803,0.62852 -4.33817,2.4849 -5.36313,4.02234 -0.55434,0.83152 -0.63413,1.97491 -1.34078,2.68157 -9.12827,9.12827 1.82755,-6.37205 -9.38547,8.04469 -1.59994,2.05706 -2.5768,4.53558 -4.02235,6.70391 -0.7012,1.0518 -2.28182,1.48233 -2.68157,2.68157 -0.28266,0.84798 0.1753,1.80506 0,2.68156 0.30769,2.69248 -2.09783,4.36899 -2.68156,6.70391 -0.21679,0.86717 0.39974,1.88208 0,2.68157 -0.19987,0.39974 -1.02476,-0.31603 -1.34078,0 -0.63205,0.63205 0.28266,1.83358 0,2.68156 -0.31603,0.94808 -1.17649,1.6958 -1.34078,2.68156 -0.2939,1.76339 0,3.57542 0,5.36313 0,2.23464 0,4.46928 0,6.70391 0,1.62354 -0.30208,3.85276 0,5.36313 2.78749,13.93749 -0.13646,-0.40936 2.68156,8.04469 0.14133,0.424 -0.24791,0.96892 0,1.34079 0.7012,1.05179 1.9231,1.67028 2.68156,2.68156 0.59962,0.79949 0.78644,1.85005 1.34079,2.68157 0.3506,0.52589 0.99018,0.81488 1.34078,1.34078 1.94258,2.91386 2.1862,5.92674 5.36313,8.04469 0.74373,0.49582 2.04951,-0.63205 2.68156,0 0.31603,0.31603 0,0.89386 0,1.34078 0,0.95035 -0.17333,7.69804 0,8.0447 0.28266,0.56532 1.05812,0.77545 1.34078,1.34078 0.36368,0.72736 -0.36686,4.99626 0,5.36313 0.31603,0.31602 1.02476,-0.31603 1.34079,0 0.28665,0.28665 -0.24641,4.62392 0,5.36312 0.31602,0.94808 1.02475,1.73349 1.34078,2.68157 0.17391,0.52173 -0.20807,3.81427 0,4.02235 0.31602,0.31602 1.02475,-0.31603 1.34078,0 0.054,0.054 0,4.87074 0,5.36312 0,0.95035 0.17333,7.69804 0,8.0447 -0.28266,0.56532 -1.14091,0.74116 -1.34078,1.34078 -0.28266,0.84798 0.28266,1.83358 0,2.68156 -1.39501,4.18501 -0.89386,-0.44692 -2.68157,1.34078 -0.31602,0.31603 0,0.89386 0,1.34079 -0.44692,0 -1.02475,-0.31603 -1.34078,0 -0.31602,0.31602 0.39975,1.14091 0,1.34078 -0.79949,0.39974 -1.88207,-0.39974 -2.68156,0 -0.39975,0.19987 0.31602,1.02476 0,1.34078 -0.31603,0.31603 -0.94104,-0.19987 -1.34078,0 -1.60894,0.80447 -2.41341,3.21788 -4.02235,4.02235 -0.84271,0.42135 -4.52042,-0.42136 -5.36313,0 -0.56532,0.28266 -0.7276,1.18749 -1.34078,1.34078 -1.22402,0.306 -7.40411,0 -9.385477,0 -0.492384,0 -5.309173,-0.054 -5.363128,0 -0.134078,0.13408 -0.134078,3.88827 0,4.02235 0.366867,0.36686 4.635771,-0.36368 5.363128,0 0.565324,0.28266 0.775459,1.05812 1.340782,1.34078 1.072626,0.53631 2.949725,-0.53631 4.022345,0 0.56533,0.28266 0.77546,1.05812 1.34078,1.34078 0.79949,0.39974 1.88208,-0.39974 2.68157,0 4.44681,4.44682 -1.2641,-0.63205 2.68156,1.34078 0.47954,0.23977 4.99141,4.80555 5.36313,5.36313 0.55435,0.83152 0.63413,1.97491 1.34078,2.68157 0.31603,0.31602 1.02476,-0.31603 1.34079,0 0.31602,0.31602 -0.14134,0.91678 0,1.34078 0.31602,0.94807 1.02475,1.73349 1.34078,2.68156 0.82557,2.47671 -2.04591,0.63566 1.34078,4.02235 0.31602,0.31602 1.02476,-0.31603 1.34078,0 0.41104,0.41104 -0.41436,6.28955 0,6.70391 0.31603,0.31602 1.02476,-0.31603 1.34078,0 0.36753,0.36752 -0.31426,5.76112 0,6.70391 1.54066,4.62196 1.34079,0.9932 1.34079,4.02235 0,3.57541 0,7.15083 0,10.72625 0,0.44693 0,0.89386 0,1.34079 0,0.44692 -0.31603,1.02475 0,1.34078 1.32265,1.32265 2.68156,-2.74737 2.68156,1.34078 0,2.68156 0,5.36313 0,8.04469 0,0.44693 0.31603,1.02476 0,1.34078 -0.31603,0.31603 -1.02476,-0.31602 -1.34078,0 -0.31603,0.31603 0,0.89386 0,1.34079 -0.44693,0 -1.02476,-0.31603 -1.34078,0 -0.27411,0.2741 0.2658,3.49073 0,4.02234 -0.28267,0.56533 -1.05812,0.77546 -1.34079,1.34078 -0.19987,0.39975 0.19988,0.94104 0,1.34079 -0.28266,0.56532 -1.05812,0.77546 -1.34078,1.34078 -0.2658,0.53161 0.27411,3.74824 0,4.02235 -0.63205,0.63205 -2.04951,-0.63206 -2.68156,0 -0.31603,0.31602 0.19987,0.94103 0,1.34078 -0.28266,0.56532 -1.05812,0.77546 -1.34078,1.34078 -1.18674,2.37348 1.99432,0.45816 -1.34079,2.68156 -0.83151,0.55435 -1.85004,0.78644 -2.68156,1.34079 -0.5259,0.35059 -0.81489,0.99018 -1.34078,1.34078 -1.66304,1.10869 -3.7001,1.57287 -5.36313,2.68156 -1.0518,0.7012 -1.55092,2.11624 -2.68157,2.68157 -0.39974,0.19987 -1.02475,-0.31603 -1.34078,0 -0.70665,0.70665 -0.78644,1.85004 -1.34078,2.68156 -2.053512,3.08027 -0.765853,-0.57493 -4.022347,2.68157 -0.706654,0.70665 -0.634128,1.97491 -1.340782,2.68156 -0.316025,0.31602 -1.024757,-0.31603 -1.340782,0 -0.316025,0.31602 0.316025,1.02476 0,1.34078 -0.316025,0.31603 -1.024757,-0.31602 -1.340782,0 -0.632051,0.63205 0.399744,1.88208 0,2.68157 -0.282662,0.56532 -1.058121,0.77545 -1.340782,1.34078 -0.176274,0.35255 0,4.662 0,5.36313 0,4.46927 0,8.93854 0,13.40782 0,6.70391 0,13.40782 0,20.11173 0,3.12849 0,6.25698 0,9.38547 0,0.44693 0,0.89386 0,1.34079 0,0.44692 -0.199872,0.94103 0,1.34078 0.282661,0.56532 1.05812,0.77546 1.340782,1.34078 0.786093,1.57219 -0.795678,1.59136 -1.340782,2.68157 -0.199872,0.39974 0,0.89385 0,1.34078 0,0.44692 0,0.89385 0,1.34078 0,5.36313 0,10.72626 0,16.08939 0,0.70112 -0.176274,5.01058 0,5.36312 0.565323,1.13065 2.116241,1.55092 2.681564,2.68157 0.199872,0.39974 -0.316025,1.02475 0,1.34078 0.316025,0.31603 1.024757,-0.31603 1.340782,0 0.316026,0.31603 -0.199872,0.94104 0,1.34078 0.282662,0.56533 1.058121,0.77546 1.340782,1.34078 0.199872,0.39975 -0.316025,1.02476 0,1.34079 0.632051,0.63205 1.882077,-0.39975 2.681565,0 4.446812,4.44681 -1.264102,-0.63205 2.681562,1.34078 1.13065,0.56532 1.55092,2.11624 2.68157,2.68156 0.71093,0.35547 5.79177,-0.30404 6.70391,0 0.59961,0.19987 0.77546,1.05812 1.34078,1.34078 0.39974,0.19988 0.89385,0 1.34078,0 0.44693,0 0.89386,0 1.34078,0 2.68157,0 5.36313,0 8.0447,0 0.44692,0 0.89385,0 1.34078,0 0.44693,0 1.02475,-0.31602 1.34078,0 0.31603,0.31603 -0.39974,1.14092 0,1.34079 0.56985,0.28492 5.58033,0 6.70391,0 0.44693,0 1.02476,-0.31603 1.34078,0 0.31603,0.31602 -0.31602,1.02475 0,1.34078 1.78771,1.78771 1.34079,-2.23464 1.34079,1.34078"
       id="path4326"
       inkscape:connector-curvature="0" />
    <path
       style="fill:none;fill-rule:evenodd;stroke:#000000;stroke-width:1px;stroke-linecap:butt;stroke-linejoin:miter;stroke-opacity:1"
       d="m 158.21229,502.64163 c -10.04341,0 -5.64623,-1.19923 -13.40782,2.68156 -0.89385,0.44693 -1.88208,0.74117 -2.68156,1.34078 -1.01129,0.75846 -1.55092,2.11624 -2.68157,2.68157 -0.79949,0.39974 -1.83358,-0.28266 -2.68156,0 -0.59962,0.19987 -0.77546,1.05812 -1.34078,1.34078 -0.39975,0.19987 -1.02476,-0.31603 -1.34079,0 -0.31602,0.31603 0.31603,1.02476 0,1.34078 -0.31602,0.31603 -1.02475,-0.31602 -1.34078,0 -0.2741,0.27411 0.26581,3.49074 0,4.02235 -0.28266,0.56532 -1.01559,0.7988 -1.34078,1.34078 -1.02833,1.71389 -1.78771,3.57542 -2.68157,5.36313 -3.14436,6.28873 -3.7478,6.67197 -5.36312,14.7486 -0.26295,1.31475 0,2.68157 0,4.02235 0,3.12849 0,6.25698 0,9.38547 0,1.34079 0.26294,2.70761 0,4.02235 -0.19599,0.97995 -1.1448,1.70161 -1.34079,2.68156 -0.24708,1.23543 0.38075,9.96476 0,10.72626 -0.5451,1.09021 -2.12687,1.10938 -1.34078,2.68157 0.28266,0.56532 1.05812,0.77545 1.34078,1.34078 0.63205,1.2641 0.8578,2.69413 1.34079,4.02234 1.30496,3.58865 2.92509,7.06875 4.02234,10.72626 0.34108,1.13691 -0.41382,5.87626 0,6.70391 0.28266,0.56533 1.05812,0.77546 1.34078,1.34078 0.19988,0.39975 0,0.89386 0,1.34079 0,1.34078 -0.32518,2.72159 0,4.02234 0.1533,0.61318 1.05812,0.77546 1.34079,1.34078 0.19987,0.39975 -0.1084,0.9072 0,1.34079 0.34277,1.37111 0.998,2.65123 1.34078,4.02234 0.10839,0.43359 -0.19987,0.94104 0,1.34079 0.28266,0.56532 1.05812,0.77545 1.34078,1.34078 0.36368,0.72736 -0.36687,4.99626 0,5.36313 0.31603,0.31602 0.89386,0 1.34078,0 0,0.44692 -0.19987,0.94103 0,1.34078 0.28266,0.56532 1.05812,0.77546 1.34079,1.34078 0.19987,0.39974 -0.14134,0.91679 0,1.34078 0.31602,0.94808 1.0984,1.71205 1.34078,2.68157 0.21679,0.86716 0,1.78771 0,2.68156 0,2.23464 0,4.46927 0,6.70391 0,0.32518 0.0431,3.97923 0,4.02235 -2.77413,2.77412 0.10844,-4.23923 -2.68157,1.34078 -0.19987,0.39974 0.19987,0.94104 0,1.34078 -0.56532,1.13065 -2.11624,1.55092 -2.68156,2.68157 -0.19987,0.39974 0.31602,1.02475 0,1.34078 -0.31603,0.31602 -1.02476,-0.31603 -1.34078,0 -0.31603,0.31602 0.31602,1.02476 0,1.34078 -0.70666,0.70665 -1.97491,0.63413 -2.68157,1.34078 -0.31602,0.31603 0.31603,1.02476 0,1.34078 -2.77412,2.77413 0.10845,-4.23923 -2.68156,1.34079 0,3.57542 0.44693,-0.44693 -1.34078,1.34078 -2.77413,2.77413 4.23923,-0.10844 -1.34079,2.68156 -0.79948,0.39975 -1.83358,-0.28266 -2.68156,0 -0.94808,0.31603 -1.73349,1.02476 -2.68156,1.34079 -0.424,0.14133 -0.94104,-0.19988 -1.34079,0 -4.08879,2.04439 2.45222,1.06292 -4.02234,2.68156 -0.99522,0.2488 -4.95159,-0.41155 -5.36313,0 -0.31603,0.31603 0.31602,1.02476 0,1.34078 -0.27411,0.27411 -3.49074,-0.2658 -4.02235,0 -1.13064,0.56533 -1.55092,2.11624 -2.681562,2.68157 -0.799488,0.39974 -2.049514,-0.63205 -2.681565,0 -0.316025,0.31602 0,0.89385 0,1.34078 0,4.30184 3.904837,6.5864 6.703907,9.38547 0.89386,0.89386 1.78771,1.78771 2.68157,2.68157 1.34078,1.34078 2.68156,2.68156 4.02234,4.02234 0.89386,0.89386 1.92311,1.67029 2.68157,2.68157 3.29365,0.47808 0.55682,2.8464 1.34078,4.02234 0.7012,1.0518 1.98037,1.62977 2.68157,2.68157 0.49582,0.74373 -0.63206,2.04951 0,2.68156 0.31602,0.31603 1.02475,-0.31602 1.34078,0 0.001,10e-4 -0.002,4.01627 0,4.02235 0.39974,1.19923 2.11624,1.55092 2.68156,2.68156 0.28631,0.57263 0,6.17389 0,6.70391 0,1.92489 0.39825,5.11091 0,6.70392 -0.0322,0.12882 -2.41708,2.32891 -2.68156,2.68156 -0.96685,1.28913 -1.88208,2.62324 -2.68157,4.02235 -1.48746,2.60306 -2.47984,5.47386 -4.02234,8.04469 -0.82907,1.38178 -1.96092,2.58105 -2.68157,4.02234 -0.63205,1.26411 -0.70873,2.75825 -1.34078,4.02235 -0.72065,1.4413 -2.0831,2.52618 -2.68156,4.02235 -0.33197,0.82992 0.39974,1.88207 0,2.68156 -0.19988,0.39975 -0.94104,-0.19987 -1.34079,0 -0.56532,0.28266 -0.99018,0.81489 -1.34078,1.34078 -1.10869,1.66304 -1.48233,3.76416 -2.681562,5.36313 -0.758461,1.01128 -1.980367,1.62977 -2.681565,2.68157 -0.24791,0.37186 0.199872,0.94103 0,1.34078 -2.790007,5.58001 0.09256,-1.43334 -2.681564,1.34078 -0.138118,0.13812 0.111416,6.36966 0,6.70391 -0.199872,0.59962 -1.14091,0.74117 -1.340782,1.34078 -0.565323,1.69597 0.433583,3.6288 0,5.36313 -0.242381,0.96952 -1.241342,1.68717 -1.340782,2.68157 -0.355768,3.55767 0,7.15083 0,10.72625 0,0.89386 0.216791,1.8144 0,2.68157 -2.584979,10.33991 -0.63161,-11.11407 -2.681564,9.38547 -0.376855,3.76855 0,8.18602 0,12.06704 0,1.78771 0,3.57542 0,5.36313 0,0.89386 -0.216792,1.8144 0,2.68156 0.24238,0.96953 1.098401,1.71205 1.340782,2.68157 0.216791,0.86717 -0.282662,1.83358 0,2.68156 0.199872,0.59962 1.05812,0.77546 1.340782,1.34079 0.399744,0.79948 -0.632051,2.04951 0,2.68156 0.316025,0.31602 0.941038,-0.19987 1.340782,0 5.580014,2.79001 -1.433344,-0.0926 1.340782,2.68156 0.316025,0.31603 1.024757,-0.31602 1.340782,0 0.316026,0.31603 -0.199872,0.94104 0,1.34079 0.565324,1.13064 2.03119,1.5976 2.681564,2.68156 0.07863,0.13106 2.180765,5.78312 4.022345,6.70391 0.39975,0.19987 1.02476,-0.31602 1.34078,0 0.31603,0.31603 -0.31602,1.02476 0,1.34078 0.31603,0.31603 0.94104,-0.19987 1.34079,0 0.56532,0.28266 0.77545,1.05812 1.34078,1.34079 0.39974,0.19987 0.94104,-0.19988 1.34078,0 0.56532,0.28266 0.81488,0.99018 1.34078,1.34078 0.83152,0.55434 1.85005,0.78643 2.68157,1.34078 1.25472,0.83648 4.50444,4.50444 5.36313,5.36313 0.44692,0.44693 0.77545,1.05812 1.34078,1.34078 0.39974,0.19987 0.89385,0 1.34078,0 0.89385,0.44693 1.85005,0.78644 2.68156,1.34078 1.0518,0.7012 1.48234,2.28182 2.68157,2.68157 0.84798,0.28266 1.88207,-0.39975 2.68156,0 0.39975,0.19987 -0.39974,1.14091 0,1.34078 0.79949,0.39974 1.88208,-0.39975 2.68157,0 0.39974,0.19987 -0.31603,1.02476 0,1.34078 0.31602,0.31603 0.94103,-0.19987 1.34078,0 0.56532,0.28266 0.77546,1.05812 1.34078,1.34078 0.53161,0.26581 3.74824,-0.2741 4.02235,0 0.31602,0.31603 -0.31603,1.02476 0,1.34078 0.67039,0.6704 3.35195,-0.67039 4.02234,0 0.31603,0.31603 -0.31602,1.02476 0,1.34079 0.31603,0.31602 0.94104,-0.19987 1.34079,0 0.56532,0.28266 0.77545,1.05812 1.34078,1.34078 0.39974,0.19987 0.89385,0 1.34078,0 0.44693,0 0.89385,0 1.34078,0"
       id="path4330"
       inkscape:connector-curvature="0" />
    <text
       xml:space="preserve"
       style="font-style:normal;font-weight:normal;font-size:40px;line-height:125%;font-family:sans-serif;letter-spacing:0px;word-spacing:0px;fill:#000080;fill-opacity:1;stroke:none;stroke-width:1px;stroke-linecap:butt;stroke-linejoin:miter;stroke-opacity:1"
       x="-48.268158"
       y="687.66956"
       id="text4332"
       sodipodi:linespacing="125%"><tspan
         sodipodi:role="line"
         id="tspan4334"
         x="-48.268158"
         y="687.66956">MAIN</tspan></text>
  </g>
</svg>
